<?xml version="1.0" encoding="UTF-8" standalone="no"?>
<!-- Created with Inkscape (http://www.inkscape.org/) -->

<svg
   width="665.71814"
   height="662.45673"
   viewBox="0 0 665.71814 662.45673"
   version="1.1"
   id="svg1"
   xml:space="preserve"
   xmlns="http://www.w3.org/2000/svg"
   xmlns:svg="http://www.w3.org/2000/svg"><defs
     id="defs1" /><g
     id="layer3"
     style="display:inline"
     transform="translate(-611.64531,-191.80664)"><path
       id="path1"
       style="opacity:1;fill:#050442;fill-opacity:1;stroke:#000000;stroke-width:45;stroke-dasharray:none;stroke-opacity:1;paint-order:stroke fill markers"
       d="m 944.33203,214.30664 a 33.410797,33.410797 0 0 0 -33.41015,33.41016 33.410797,33.410797 0 0 0 22.43359,31.47461 v 56.45312 c 0,0 -29.3625,0.50469 -55.6875,23.11719 0,0 -145.96875,-26.66094 -203.34375,126.22656 0,0 -41.17461,14.17383 -40.16211,68.17383 1.0125,54 23.28789,67.16211 37.46289,72.22461 0,0 36.44961,154.91367 203.84961,137.70117 v 62.77539 c 0,0 32.66939,-7.67688 48.55273,-13.00976 133.01656,-44.66072 280.63886,-71.57732 294.51176,-187.59375 0,0 34.6846,-8.19306 36.2754,-66.82227 1.7485,-64.44103 -40.0938,-73.74219 -40.0938,-73.74219 C 1170.31,340.1862 1011.875,358.21094 1011.875,358.21094 c 0,0 -19.47645,-19.5202 -56.07422,-22.73633 v -56.4668 a 33.410797,33.410797 0 0 0 21.94141,-31.29101 33.410797,33.410797 0 0 0 -33.41016,-33.41016 z" /><rect
       style="opacity:1;fill:#f74a00;fill-opacity:1;stroke-width:1.4382"
       id="rect2"
       width="494.00247"
       height="198.34042"
       x="698.047"
       y="462.13116"
       ry="99.170212" /><path
       id="path4"
       style="display:inline;opacity:1;fill:#06036d;fill-opacity:1;stroke:#000000;stroke-width:0;stroke-dasharray:none;stroke-opacity:1"
       d="m 944.33203,214.30664 a 33.410797,33.410797 0 0 0 -33.41015,33.41016 33.410797,33.410797 0 0 0 22.43359,31.47461 v 56.45312 c 0,0 -29.3625,0.50469 -55.6875,23.11719 0,0 -49.82752,-9.04197 -102.69727,13.87695 l 362.043,362.04492 c 44.2744,-25.51975 75.5049,-59.07546 81.5254,-109.42382 0,0 34.6846,-8.19306 36.2754,-66.82227 1.7485,-64.44103 -40.0938,-73.74219 -40.0938,-73.74219 C 1170.31,340.1862 1011.875,358.21094 1011.875,358.21094 c 0,0 -19.47645,-19.5202 -56.07422,-22.73633 v -56.4668 a 33.410797,33.410797 0 0 0 21.94141,-31.29101 33.410797,33.410797 0 0 0 -33.41016,-33.41016 z" /><path
       id="rect3"
       style="display:inline;opacity:1;fill:#ff6421;fill-opacity:1;stroke-width:1.4382"
       d="m 864.4309,462.13086 198.1778,198.33984 h 30.2702 c 54.9403,0 99.1699,-44.22962 99.1699,-99.16992 0,-54.9403 -44.2296,-99.16992 -99.1699,-99.16992 z" /><circle
       style="font-variation-settings:normal;opacity:1;vector-effect:none;fill:#f9f9f9;fill-opacity:1;stroke-width:2.46774;stroke-linecap:butt;stroke-linejoin:miter;stroke-miterlimit:4;stroke-dasharray:none;stroke-dashoffset:0;stroke-opacity:1;-inkscape-stroke:none;stop-color:#000000;stop-opacity:1"
       id="path2"
       cx="847.44098"
       cy="560.8241"
       r="73.026451" /><circle
       style="font-variation-settings:normal;opacity:1;vector-effect:none;fill:#f9f9f9;fill-opacity:1;stroke-width:1.72581;stroke-linecap:butt;stroke-linejoin:miter;stroke-miterlimit:4;stroke-dasharray:none;stroke-dashoffset:0;stroke-opacity:1;-inkscape-stroke:none;stop-color:#000000;stop-opacity:1"
       id="circle2"
       cx="1041.9396"
       cy="560.8241"
       r="51.070789" /></g></svg>
