<?xml version="1.0" encoding="UTF-8" standalone="no"?>
<!-- Created with Inkscape (http://www.inkscape.org/) -->

<svg
   width="625.62158"
   height="625.62183"
   viewBox="0 0 625.62158 625.62183"
   version="1.1"
   id="svg1"
   xml:space="preserve"
   xmlns="http://www.w3.org/2000/svg"
   xmlns:svg="http://www.w3.org/2000/svg"><defs
     id="defs1" /><path
     id="rect6"
     style="fill:#ffffff;fill-opacity:1;stroke:none;stroke-width:45;paint-order:stroke fill markers"
     d="m 582.33378,13.509789 c -18.0122,-18.0121998 -47.0127,-18.0135798 -65.0249,-10e-4 L 312.81006,218.00728 108.31257,13.509779 C 90.300364,-4.5024108 61.299944,-4.5037808 43.287744,13.508779 l -29.77859,29.77859 c -18.0121899,18.01219 -18.0121999,47.014 0,65.026191 L 218.00665,312.81106 13.509154,517.30855 c -18.0121899,18.01219 -18.0121899,47.01401 0,65.0262 l 29.77859,29.77859 c 18.0122,18.01219 47.01263,18.01081 65.024836,-10e-4 L 312.81006,407.6141 517.30898,612.11297 c 18.0122,18.0122 47.0126,18.0108 65.0248,-10e-4 l 29.7786,-29.77859 c 18.0121,-18.01219 18.0122,-47.01123 0,-65.02343 L 407.61347,312.81069 612.11238,108.31182 c 18.0122,-18.012201 18.0122,-47.011251 0,-65.023451 z" /></svg>
