<?xml version="1.0" encoding="UTF-8" standalone="no"?>
<!-- Created with Inkscape (http://www.inkscape.org/) -->

<svg
   width="289.28983"
   height="355.68011"
   viewBox="0 0 289.28983 355.68011"
   version="1.1"
   id="svg1"
   xmlns="http://www.w3.org/2000/svg"
   xmlns:svg="http://www.w3.org/2000/svg">
  <defs
     id="defs1" />
  <g
     id="layer3"
     style="display:inline"
     transform="translate(-114.84769,-4.1704331)">
    <path
       class="p1"
       style="fill:currentColor;fill-opacity:1;stroke:none;stroke-width:1;stroke-dasharray:none;stroke-opacity:1"
       d="m 154.58781,359.72803 h 66.8219 V 251.97509 c 0,0 -65.18754,-0.17111 -67.44183,-62.61489 0,0 -4.95944,-39.45004 52.97577,-62.21835 L 208.18351,6.0865779 c 0,0 -41.25347,0.6762865 -63.3455,13.5257291 L 176.77709,106.401 c 0,0 -62.71011,24.34771 -61.8084,74.39291 0,0 -6.08657,57.25892 68.07951,81.60523 z"
       id="path1" />
    <path
       class="p2"
       style="fill:currentColor;fill-opacity:1;stroke:none;stroke-width:1;stroke-dasharray:none;stroke-opacity:1"
       d="m 236.55293,359.85056 h 93.09091 L 255.28269,212.24409 c 0,0 30.68493,-19.84558 32.59775,-53.47946 0,0 5.80329,-31.49072 -34.72388,-57.09624 L 281.6733,16.230874 c 0,0 -18.25973,-11.7222978 -60.52764,-12.060441 l -0.28178,134.411927 c 0,0 -50.46288,8.86471 -51.10049,49.19348 0,0 -5.89789,47.02366 67.10834,46.86426 z"
       id="path2" />
    <path
       class="p1"
       style="fill:currentColor;fill-opacity:1;stroke:none;stroke-width:1;stroke-dasharray:none;stroke-opacity:1"
       d="M 348.40023,359.78438 H 404.1375 L 314.44501,238.41915 c 0,0 54.41178,-45.22363 57.59982,-95.27594 0,0 3.50685,-80.976336 -73.00622,-118.914069 L 270.0274,96.278954 c 0,0 31.45224,23.224666 35.06849,53.877956 0,0 8.28892,35.06849 -33.15567,61.21046 z"
       id="path3" />
  </g>
</svg>
