<?xml version="1.0" encoding="UTF-8" standalone="no"?>
<!-- Created with Inkscape (http://www.inkscape.org/) -->

<svg
   width="141.10857mm"
   height="141.11111mm"
   viewBox="0 0 141.10857 141.11111"
   version="1.1"
   id="SVGRoot"
   xmlns="http://www.w3.org/2000/svg"
   xmlns:svg="http://www.w3.org/2000/svg">
  <defs
     id="defs519" />
  <g
     id="layer1"
     transform="translate(-43.043498,-64.086122)">
    <path
       d="m 176.62023,71.617926 -13.13215,13.132153 a 70.555555,70.555555 0 1 0 -49.8916,120.447151 71.384583,71.384583 0 0 0 65.00813,-43.09181 8.8194444,8.8194444 0 1 0 -16.24542,-6.87034 53.542847,53.542847 0 0 1 -48.76271,32.32326 52.916666,52.916666 0 1 1 37.42091,-90.337567 L 138.75836,109.4798 a 4.4097222,4.4097222 0 0 0 3.12208,7.53181 h 37.86188 a 4.4097222,4.4097222 0 0 0 4.40972,-4.41855 V 74.73119 a 4.4097222,4.4097222 0 0 0 -7.53181,-3.113264 z"
       id="path1"
       style="fill:currentColor;stroke-width:8.81944" />
  </g>
</svg>
